<?xml version="1.0" encoding="UTF-8"?>
<!DOCTYPE svg PUBLIC "-//W3C//DTD SVG 1.1//EN" "http://www.w3.org/Graphics/SVG/1.1/DTD/svg11.dtd">
<!-- Creator: CorelDRAW 2018 (64 Bit Versão de avaliação) -->
<svg xmlns="http://www.w3.org/2000/svg" xml:space="preserve" width="68mm" height="35.5354mm" version="1.1" style="shape-rendering:geometricPrecision; text-rendering:geometricPrecision; image-rendering:optimizeQuality; fill-rule:evenodd; clip-rule:evenodd"
viewBox="0 0 21873.64 11430.71"
 xmlns:xlink="http://www.w3.org/1999/xlink">
 <defs>
  <style type="text/css">
   <![CDATA[
    .fil4 {fill:#000066}
    .fil3 {fill:#0086FF}
    .fil1 {fill:#00CCFF}
    .fil2 {fill:aqua}
    .fil0 {fill:#00CCFF;fill-rule:nonzero}
   ]]>
  </style>
 </defs>
 <g id="Camada_x0020_1">
  <metadata id="CorelCorpID_0Corel-Layer"/>
  <g id="_2502337434720">
   <path class="fil0" d="M5419.97 4174.17l478.42 0 0 -956.97c0,-524.32 239.16,-916.31 692.62,-916.31 393.56,0 642.73,300.38 642.73,743.19l0 1130.1 478.29 0 0 -1170.79c0,-671.94 -303.85,-1191.18 -996.57,-1191.18 -363.62,0 -642.73,188.34 -817.08,473.37l0 -432.68 -478.42 0 0 2321.28zm3572.61 40.69c309.06,0 523.23,-122.17 662.67,-285.03l0 244.34 478.42 0 0 -1333.65c0,-666.86 -299.03,-1028.32 -946.71,-1028.32 -378.74,0 -732.57,193.39 -941.79,366.51l229.26 391.99c104.67,-86.56 393.56,-269.82 672.68,-269.82 388.61,0 493.28,173.12 508.14,468.29l-358.79 0c-463.37,0 -1135.92,106.99 -1135.92,743.19 0,422.55 368.7,702.5 832.03,702.5zm-348.76 -702.5c0,-229 204.36,-341.04 612.91,-341.04l398.52 0 0 218.87c-39.86,178.21 -229.16,417.46 -582.87,417.46 -229.26,0 -428.56,-112.04 -428.56,-295.29zm2137.67 661.81l478.29 0 0 -4174.17 -478.29 0 0 4174.17zm1106.2 794.14l558 0 1718.98 -3115.42 -562.92 0 -752.49 1389.78 -677.63 -1389.78 -563.05 0 971.7 1883.55 -692.59 1231.87zm3732.09 -768.67c59.77,0 164.44,-5.05 219.12,-10.26l0 -468.29c-398.52,45.87 -537.96,-81.35 -537.96,-361.43l0 -1018.09 612.82 0 0 -488.68 -612.82 0 0 -682.1 -478.42 0 0 682.1 -508.27 0 0 488.68 508.27 0 0 1018.09c0,524.42 209.31,839.98 797.26,839.98zm842.04 -25.48l478.33 0 0 -2321.28 -478.33 0 0 2321.28zm-49.73 -2972.82c0,162.83 129.54,295.26 288.89,295.26 154.4,0 284.07,-132.43 284.07,-295.26 0,-162.86 -129.67,-290.12 -284.07,-290.12 -159.36,0 -288.89,127.25 -288.89,290.12zm2286.89 3013.51c433.64,0 817.3,-223.95 1036.55,-564.98l-438.6 -259.69c-124.45,203.65 -343.71,335.99 -597.95,335.99 -383.53,0 -697.54,-315.59 -697.54,-712.63 0,-392.02 314.02,-712.66 697.54,-712.66 254.25,0 473.5,137.39 597.95,335.99l438.6 -259.69c-219.25,-335.99 -602.91,-564.98 -1036.55,-564.98 -662.64,0 -1215.69,539.64 -1215.69,1201.35 0,666.86 553.05,1201.31 1215.69,1201.31zm2212.42 0c463.34,0 881.89,-229 881.89,-727.85 0,-519.24 -478.33,-631.28 -762.26,-727.97 -323.92,-112.04 -433.52,-162.86 -433.52,-285.03 0,-183.26 199.31,-224.04 318.81,-224.04 264.16,0 428.59,168.04 478.45,224.04l308.93 -285.16c-144.62,-188.31 -423.64,-376.64 -807.3,-376.64 -413.48,0 -782.3,244.34 -782.3,692.37 0,488.55 478.33,620.99 767.48,717.71 318.81,106.83 428.43,142.56 428.43,285.03 0,198.57 -204.26,264.74 -358.79,264.74 -328.84,0 -528.06,-198.6 -572.96,-279.95l-393.69 244.34c109.75,234.08 468.42,478.42 926.83,478.42z"/>
   <path class="fil1" d="M30.94 5305.52l2278.2 -5305.52 889.97 0 914.61 2194.86c0,0 337.79,-506.76 356.32,-683.97 18.56,-177.21 0,-177.21 0,-177.21l-375.97 -100.78 894.92 -984.92c0,0 177.21,721.09 177.21,972.38 0,251.32 0,341.94 0,341.94l-305.11 -81.77c0,0 -66.01,444.49 -239.03,761.69 -173.06,317.2 -276.06,523.2 -276.06,523.2l1005.42 2290.85 -885.88 0 -634.88 -1540.9c0,0 -1322.81,1940.71 -3799.71,1790.16zm1219.71 -751.68c0,0 856.93,-789.57 1219.55,-1343.2 362.59,-553.66 535.65,-1021.85 535.65,-1021.85 0,0 -387.36,417.34 -716.91,618.06 -329.58,200.72 -420.3,200.72 -420.3,200.72l881.73 -2141.4 889.77 2141.4c0,0 -949.03,1389.75 -2389.5,1546.27z"/>
   <polygon class="fil2" points="7874.38,4710.71 8059.79,4422.3 8574.89,4422.3 8574.89,5032.06 8063.94,5032.06 "/>
   <polygon class="fil1" points="8830.26,4710.71 9015.67,4422.3 9530.73,4422.3 9530.73,5032.06 9019.82,5032.06 "/>
   <polygon class="fil3" points="9786.11,4710.71 9971.52,4422.3 10486.61,4422.3 10486.61,5032.06 9975.67,5032.06 "/>
   <g>
    <g>
     <polygon class="fil4" points="11228.22,10032.12 11888.65,10032.12 11888.65,8011.77 14064.36,8011.77 14064.36,10032.12 14724.79,10032.12 14724.79,5564.17 14064.36,5564.17 14064.36,7429 11888.65,7429 11888.65,5564.17 11228.22,5564.17 "/>
     <path class="fil4" d="M19076.29 9837.77c0,254.41 1070.36,233.15 1282.15,233.15 895.18,0 1515.2,-657.21 1515.2,-1553.99l0 -349.75c0,-772.43 -412.8,-1476.37 -1165.58,-1476.37 -719.64,0 -659.81,153.92 -1010.05,388.58l0 -1981.4 -621.73 0 0 4739.79zm1165.67 -271.97c-224.24,0 -543.95,1.96 -543.95,-155.4l0 -1787.08c0,-348.02 1515.17,-857.09 1515.17,582.8 0,645.95 -41.53,1359.67 -971.22,1359.67z"/>
     <path class="fil4" d="M2952.75 8361.52c0,866.26 396.85,1709.39 1320.97,1709.39 516.41,0 952.92,-24.35 1294.53,-492.64 605.26,-829.56 459.51,-2887.48 -983.86,-2887.48 -495.63,0 -983.96,32.26 -1298.72,488.33 -228.32,330.97 -332.93,761.3 -332.93,1182.4zm1437.42 -1165.7c1135.4,0 875.07,1663.43 688.38,2009.48 -273.84,507.34 -1157.53,518.73 -1378.2,-173.61 -109.53,-343.8 -104.96,-964.66 2.7,-1299.58 95.44,-297.45 321.32,-536.29 687.12,-536.29z"/>
     <path class="fil4" d="M8081.12 6807.37l0 543.98c427.63,-99.65 1670.73,-452.11 1670.73,427.24 0,659.46 -94.7,146.52 -1239.53,508.98 -1064.18,337.01 -747.21,1783.35 190.4,1783.35 316.88,0 483.5,23 765.26,-128.44 172.61,-92.58 228.35,-170.84 361.49,-260.1 0,195.32 4.47,201.53 38.95,349.75l543.95 0 0 -2059.18c0,-359.02 -77.36,-717.42 -243.05,-922.62 -493.03,-610.24 -1619.78,-281.88 -2088.19,-242.96zm427.37 2369.98c0,-326.88 75.3,-472.76 411.71,-559.55 151.44,-38.95 675.38,-97.43 831.65,-100.88l0 699.38c0,353.68 -1243.36,649.39 -1243.36,-38.95z"/>
     <path class="fil4" d="M15579.56 9060.87c0,864.68 749.69,1101.79 1355.59,990.17 289.05,-53.3 470.28,-158 703.69,-329.75 49.96,86.3 38.7,133.65 38.7,310.83l582.8 0 0 -3302.5 -660.42 0 0 2292.33c0,304.24 -545.2,543.33 -878.13,492.41 -475.85,-72.83 -520.5,-401.54 -520.5,-919.82l0 -1864.92 -621.73 0 0 2331.25z"/>
     <polygon class="fil4" points="-0,10032.12 2797.35,10032.12 2797.35,9488.14 660.42,9488.14 660.42,5564.17 -0,5564.17 "/>
     <path class="fil4" d="M6565.92 9177.34c0,369.28 -30.04,858.22 -111.14,1132.06 -94.09,317.62 -133.4,386.97 -289.05,643.5 -65.4,107.79 -85.4,118.92 -143.75,205.84 171.97,90.97 273.94,227.1 466.2,271.97 364.32,-543.95 699.35,-954.91 699.35,-1748.35l0 -2952.75 -621.6 0 0 2447.72z"/>
    </g>
    <path class="fil4" d="M6449.57 5723.14c0,530.08 854.2,530.08 854.2,0 0,-474.34 -854.2,-474.34 -854.2,0z"/>
   </g>
  </g>
 </g>
</svg>
